<svg width="1317" height="361" viewBox="0 0 1317 361" fill="none" xmlns="http://www.w3.org/2000/svg">
<path d="M257.282 269.209L204.473 198.233C165.578 116.368 117.157 60.3387 0.000106082 67.9681L0.000111698 25.3001C123.19 14.9857 190.36 128.763 257.282 269.209Z" fill="#FFFCA8"/>
<path d="M257.282 269.209L204.473 236.533C157.39 156.131 105.626 99.4531 0.000180405 110.636L0.000106082 67.9681C123.19 57.6538 190.36 128.763 257.282 269.209Z" fill="#9DF390"/>
<path d="M257.282 270.545H204.473C157.39 190.143 105.625 141.587 0 152.77L9.22405e-06 110.102C123.19 99.7875 190.36 130.099 257.282 270.545Z" fill="#84D0F9"/>
<path d="M350.865 274.531H315.755V0H350.865V120.271C362.444 100.475 384.481 87.0283 412.868 87.0283C459.557 87.0283 481.968 116.536 481.968 163.225V274.905H446.858V171.068C446.858 134.091 429.303 119.15 403.157 119.15C369.167 119.15 350.865 143.802 350.865 175.177V274.531Z" fill="#84D0F9"/>
<path d="M509.395 356.704V327.943H532.926C549.734 327.943 563.18 325.329 571.771 302.171L578.121 284.616L504.539 92.2574H541.517L594.555 239.421L648.714 92.2574H684.945L598.664 315.991C586.338 347.366 568.036 360.439 540.023 360.439C528.444 360.439 518.732 358.945 509.395 356.704Z" fill="#84D0F9"/>
<path d="M779.254 279.387C726.215 279.387 694.093 239.795 694.093 184.141C694.093 128.115 726.589 87.0283 780.748 87.0283C808.761 87.0283 832.293 99.3542 844.618 121.765V0H879.355V274.905H847.98L844.992 241.662C833.04 266.687 808.388 279.387 779.254 279.387ZM786.351 247.638C822.208 247.638 844.245 221.119 844.245 183.021C844.245 145.67 822.208 118.777 786.351 118.777C750.494 118.777 729.577 145.67 729.577 183.021C729.577 220.746 750.494 247.638 786.351 247.638Z" fill="#84D0F9"/>
<path d="M1034.59 90.7634V122.885H1018.9C985.66 122.885 965.117 143.055 965.117 178.165V274.905H930.007V92.6309H962.876L965.117 120.271C972.587 101.222 990.889 88.5223 1015.91 88.5223C1022.26 88.5223 1027.49 89.2693 1034.59 90.7634Z" fill="#84D0F9"/>
<path d="M1084.7 48.9301C1072 48.9301 1061.54 38.4717 1061.54 25.7723C1061.54 12.6994 1072 2.61459 1084.7 2.61459C1097.4 2.61459 1107.86 12.6994 1107.86 25.7723C1107.86 38.4717 1097.4 48.9301 1084.7 48.9301ZM1067.52 274.905V92.2574H1102.63V274.905H1067.52Z" fill="#84D0F9"/>
<path d="M1141.65 183.768C1141.65 126.621 1177.88 87.0283 1231.29 87.0283C1277.24 87.0283 1309.36 113.174 1315.71 153.887H1280.6C1274.62 130.729 1255.95 118.403 1232.41 118.403C1199.17 118.403 1176.39 143.802 1176.39 183.394C1176.39 222.613 1197.68 248.012 1230.92 248.012C1255.95 248.012 1274.62 234.939 1280.97 213.275H1316.08C1308.98 252.868 1274.99 279.387 1230.92 279.387C1177.13 279.387 1141.65 241.289 1141.65 183.768Z" fill="#84D0F9"/>
</svg>
