<svg width="1315" height="361" viewBox="0 0 1315 361" fill="none" xmlns="http://www.w3.org/2000/svg">
<path d="M254.955 267.594L202.624 197.26C164.08 116.135 116.097 60.6132 0.000105123 68.1736L0.000110688 25.8915C122.076 15.6704 188.638 128.418 254.955 267.594Z" fill="#FCF997"/>
<path d="M254.955 267.594L202.624 235.214C155.967 155.539 104.67 99.3738 0.000178773 110.456L0.000105123 68.1736C122.076 57.9525 188.638 128.418 254.955 267.594Z" fill="#7FF26D"/>
<path d="M254.955 268.918L202.624 268.918C155.966 189.244 104.67 141.127 0 152.208L9.14062e-06 109.926C122.076 99.7051 188.638 129.743 254.955 268.918Z" fill="#5EC7FF"/>
<path d="M348.865 274.531H313.755V0H348.865V120.271C360.444 100.475 382.481 87.0283 410.868 87.0283C457.557 87.0283 479.968 116.536 479.968 163.225V274.905H444.858V171.068C444.858 134.091 427.303 119.15 401.157 119.15C367.167 119.15 348.865 143.802 348.865 175.177V274.531Z" fill="#5EC7FF"/>
<path d="M507.395 356.704V327.943H530.926C547.734 327.943 561.18 325.329 569.771 302.171L576.121 284.616L502.539 92.2574H539.517L592.555 239.421L646.714 92.2574H682.945L596.664 315.991C584.338 347.366 566.036 360.439 538.023 360.439C526.444 360.439 516.732 358.945 507.395 356.704Z" fill="#5EC7FF"/>
<path d="M777.254 279.387C724.215 279.387 692.093 239.795 692.093 184.141C692.093 128.115 724.589 87.0283 778.748 87.0283C806.761 87.0283 830.293 99.3542 842.618 121.765V0H877.355V274.905H845.98L842.992 241.662C831.04 266.687 806.388 279.387 777.254 279.387ZM784.351 247.638C820.208 247.638 842.245 221.119 842.245 183.021C842.245 145.67 820.208 118.777 784.351 118.777C748.494 118.777 727.577 145.67 727.577 183.021C727.577 220.746 748.494 247.638 784.351 247.638Z" fill="#5EC7FF"/>
<path d="M1032.59 90.7634V122.885H1016.9C983.66 122.885 963.117 143.055 963.117 178.165V274.905H928.007V92.6309H960.876L963.117 120.271C970.587 101.222 988.889 88.5223 1013.91 88.5223C1020.26 88.5223 1025.49 89.2693 1032.59 90.7634Z" fill="#5EC7FF"/>
<path d="M1082.7 48.9301C1070 48.9301 1059.54 38.4717 1059.54 25.7723C1059.54 12.6994 1070 2.61459 1082.7 2.61459C1095.4 2.61459 1105.86 12.6994 1105.86 25.7723C1105.86 38.4717 1095.4 48.9301 1082.7 48.9301ZM1065.52 274.905V92.2574H1100.63V274.905H1065.52Z" fill="#5EC7FF"/>
<path d="M1139.65 183.768C1139.65 126.621 1175.88 87.0283 1229.29 87.0283C1275.24 87.0283 1307.36 113.174 1313.71 153.887H1278.6C1272.62 130.729 1253.95 118.403 1230.41 118.403C1197.17 118.403 1174.39 143.802 1174.39 183.394C1174.39 222.613 1195.68 248.012 1228.92 248.012C1253.95 248.012 1272.62 234.939 1278.97 213.275H1314.08C1306.98 252.868 1272.99 279.387 1228.92 279.387C1175.13 279.387 1139.65 241.289 1139.65 183.768Z" fill="#5EC7FF"/>
</svg>
